<svg version="1.1" xmlns="http://www.w3.org/2000/svg" style="display: block;" viewBox="0 0 2048 1643" width="1400" height="1123" preserveAspectRatio="none">

<path transform="translate(0,0)" fill="rgb(254,254,254)" d="M 770.911 335.881 C 772.272 337.813 772.099 340.859 772.1 343.479 C 772.158 452.355 772.126 561.3 772.106 670.169 L 772.077 1313.24 C 755.015 1313.44 737.952 1313.42 720.891 1313.16 L 720.904 620.826 C 712.906 612.336 702.271 601.983 693.281 594.741 C 692.366 663.732 693.208 734.686 693.201 803.804 L 693.199 1215.5 L 693.15 1313.26 C 676.523 1313.37 659.896 1313.36 643.269 1313.24 L 643.118 876.46 C 634.308 867.483 625.24 859.205 616.002 850.688 L 615.92 1313.1 C 587.978 1313.48 560.032 1313.49 532.089 1313.16 L 532.044 933.304 C 553.967 909.888 580.928 884.205 603.896 861.198 L 603.86 670.713 C 626.525 648.289 652.718 623.55 674.333 600.535 L 674.227 432.147 C 705.707 399.975 738.899 367.695 770.911 335.881 z"/>
<path transform="translate(0,0)" fill="rgb(254,254,254)" d="M 1115.12 484.211 L 1238.7 484.367 C 1225.9 499.49 1207.43 518.221 1193.53 533.174 L 1102.62 630.81 C 1033.86 704.876 965.417 781.432 895.942 854.607 C 905.624 866.555 916.425 879.295 926.68 890.734 C 991.742 963.308 1052.21 1042.44 1117.62 1114.45 C 1117.85 1120.91 1117.83 1127.58 1117.76 1134.05 C 1117.35 1174.73 1118.49 1215.68 1117.52 1256.33 C 1114.5 1255.9 1082.19 1217.05 1077.84 1212 L 1003.53 1125.59 C 927.942 1037.08 850.419 945.429 773.505 858.392 C 794.085 835.017 816.662 811.121 837.704 787.951 L 970.6 641.698 C 1016.89 590.985 1067.57 532.668 1115.12 484.211 z"/>
<path transform="translate(0,0)" fill="rgb(254,254,254)" d="M 1273.53 484.169 L 1374 484.158 C 1393.24 484.151 1415.8 483.55 1434.65 485.081 C 1481.32 488.46 1525.61 506.952 1560.83 537.757 C 1614.78 585.674 1642.32 649.698 1646.46 721.264 C 1650.94 793.917 1626.16 865.343 1577.66 919.621 C 1529.25 973.868 1464.4 1000.07 1392.76 1004.09 C 1390.84 1003.97 1390.95 1003.89 1389.07 1003.36 C 1387.27 999.25 1388.23 927.235 1388.25 917.358 C 1431.31 914.908 1472.02 896.936 1502.83 866.773 C 1588.28 782.688 1572.83 615.926 1448.65 579.78 C 1424.94 572.88 1370.17 575.377 1343.2 575.364 L 1188.27 575.408 C 1198.12 563.145 1213.81 547.337 1224.85 535.585 C 1240.61 518.809 1257.2 500.128 1273.53 484.169 z"/>
<path transform="translate(0,0)" fill="rgb(0,48,254)" d="M 1290.87 744.597 C 1296.21 743.192 1325.03 743.868 1332.52 743.956 C 1333.2 785.523 1332.72 828.37 1332.72 870 L 1332.54 1071.97 L 1291 1071.89 L 1290.73 1189.15 C 1290.71 1193.49 1290.36 1194.96 1287.31 1197.96 C 1283.81 1199.14 1285.04 1199.26 1281.86 1198.39 C 1278.73 1193.92 1279.46 1086.66 1279.31 1071.96 L 1237.3 1071.88 L 1237.25 743.871 C 1247.46 743.721 1257.67 743.777 1267.87 744.04 C 1273.59 745.356 1283.27 745.831 1289.29 745.905 L 1290.87 744.597 z"/>
<path transform="translate(0,0)" fill="rgb(254,254,254)" d="M 1169.63 883.066 C 1173.42 882.88 1175.11 882.52 1178.65 883.618 C 1179.12 887.487 1179.01 890.844 1179.07 894.702 C 1179.6 927.48 1178.21 960.67 1179.82 993.393 C 1191.85 993.815 1205.58 993.511 1217.74 993.522 L 1218.07 1319.78 L 1179.55 1319.96 C 1178.8 1352.45 1179.46 1385.18 1179.17 1417.68 C 1179.13 1421.76 1179.2 1422.44 1176.86 1424.66 C 1173.59 1424.37 1172.96 1424.45 1169.98 1423.22 C 1168.16 1419.49 1168.98 1330.99 1168.98 1320.06 C 1156.71 1319.83 1144.18 1319.9 1131.88 1319.84 C 1131.31 1244.39 1131.19 1168.94 1131.53 1093.49 C 1131.7 1064.71 1130.14 1022.02 1131.95 993.584 L 1169.01 993.488 C 1169.04 957.341 1168.6 919.093 1169.63 883.066 z"/>
<path transform="translate(0,0)" fill="rgb(0,81,252)" d="M 1267.87 744.04 C 1270.62 743.975 1276.73 744.287 1278.61 742.881 C 1281.69 724.405 1277.38 616.25 1281.45 610.159 C 1284.89 609.183 1283.58 609.359 1287.32 610.298 C 1288.97 611.853 1290.64 613.103 1290.63 615.826 C 1290.57 628.78 1290.52 642.186 1290.56 655.102 L 1290.87 744.597 L 1289.29 745.905 C 1283.27 745.831 1273.59 745.356 1267.87 744.04 z"/>
</svg>